<svg width="430" height="100" viewBox="0 0 430 100" fill="none" xmlns="http://www.w3.org/2000/svg">
<rect width="430" height="100" fill="white"/>
<path d="M75.1709 49.2549C75.1709 65.307 70.9616 77.4551 62.543 85.6992C54.1243 93.8997 41.7581 98 25.4443 98H2.54395V2.3418H28.3887C43.6556 2.3418 55.2585 6.33301 63.1973 14.3154C71.1797 22.2979 75.1709 33.9443 75.1709 49.2549ZM67.9082 49.5166C67.9082 35.82 64.4186 25.5257 57.4395 18.6338C50.5039 11.6982 40.2969 8.23047 26.8184 8.23047H9.21777V92.1113H25.0518C53.6227 92.1113 67.9082 77.9131 67.9082 49.5166Z" fill="#414245"/>
<path d="M154.341 62.3408C154.341 73.9437 151.527 83.0166 145.9 89.5596C140.273 96.0589 132.509 99.3086 122.607 99.3086C116.37 99.3086 110.874 97.8037 106.119 94.7939C101.365 91.7842 97.7223 87.4658 95.1924 81.8389C92.6624 76.2119 91.3975 69.7126 91.3975 62.3408C91.3975 50.738 94.2109 41.7087 99.8379 35.2529C105.465 28.7536 113.186 25.5039 123 25.5039C132.771 25.5039 140.426 28.7972 145.966 35.3838C151.549 41.9268 154.341 50.9124 154.341 62.3408ZM98.2021 62.3408C98.2021 72.1117 100.34 79.7451 104.614 85.2412C108.933 90.6937 115.018 93.4199 122.869 93.4199C130.721 93.4199 136.784 90.6937 141.059 85.2412C145.377 79.7451 147.536 72.1117 147.536 62.3408C147.536 52.5264 145.355 44.9147 140.993 39.5059C136.675 34.097 130.59 31.3926 122.738 31.3926C114.887 31.3926 108.824 34.097 104.549 39.5059C100.318 44.8711 98.2021 52.4827 98.2021 62.3408Z" fill="#414245"/>
<path d="M192.813 93.5508C196.914 93.5508 200.491 93.2018 203.544 92.5039V97.7383C200.403 98.7852 196.783 99.3086 192.683 99.3086C186.401 99.3086 181.756 97.6292 178.746 94.2705C175.78 90.9118 174.297 85.6338 174.297 78.4365V32.5049H163.763V28.71L174.297 25.7656L177.568 9.66992H180.905V26.8779H201.777V32.5049H180.905V77.5205C180.905 82.973 181.865 87.0078 183.784 89.625C185.703 92.2422 188.713 93.5508 192.813 93.5508Z" fill="#414245"/>
<path d="M263.02 79.4834C263.02 85.8519 260.599 90.7591 255.757 94.2051C250.915 97.6074 244.045 99.3086 235.146 99.3086C225.637 99.3086 218.091 97.8473 212.508 94.9248V87.9238C219.661 91.5007 227.208 93.2891 235.146 93.2891C242.169 93.2891 247.491 92.1331 251.111 89.8213C254.775 87.4658 256.607 84.347 256.607 80.4648C256.607 76.888 255.146 73.8783 252.224 71.4355C249.345 68.9928 244.59 66.5938 237.96 64.2383C230.85 61.6647 225.855 59.4619 222.977 57.6299C220.098 55.7542 217.917 53.6605 216.434 51.3486C214.994 48.9932 214.274 46.1361 214.274 42.7773C214.274 37.4557 216.499 33.2464 220.948 30.1494C225.441 27.0524 231.701 25.5039 239.727 25.5039C247.404 25.5039 254.688 26.9434 261.58 29.8223L259.159 35.7109C252.18 32.832 245.702 31.3926 239.727 31.3926C233.925 31.3926 229.323 32.3522 225.921 34.2715C222.519 36.1908 220.817 38.8516 220.817 42.2539C220.817 45.9616 222.126 48.9277 224.743 51.1523C227.404 53.377 232.573 55.8633 240.25 58.6113C246.662 60.9232 251.329 63.0169 254.252 64.8926C257.174 66.7246 259.355 68.8184 260.795 71.1738C262.278 73.5293 263.02 76.2992 263.02 79.4834Z" fill="#414245"/>
<circle cx="293.5" cy="86.5" r="12.5" fill="#C6A76A"/>
<circle cx="375.5" cy="86.5" r="12.5" fill="#A7A4A3"/>
<circle cx="334.5" cy="86.5" r="12.5" fill="#C5A668"/>
<circle cx="416.5" cy="86.5" r="12.5" fill="#BBBBBE"/>
</svg>
