<svg xmlns="http://www.w3.org/2000/svg" width="430" height="100" fill="none" viewBox="0 0 430 100"><path fill="#fff" d="M0 0h430v100H0z"/><path fill="#414245" d="M75.17 49.255q0 24.078-12.627 36.444Q49.915 98 25.444 98h-22.9V2.342h25.845q22.9 0 34.808 11.973 11.974 11.975 11.974 34.94m-7.262.262q0-20.545-10.468-30.883Q47.036 8.23 26.818 8.23h-17.6v83.881h15.834q42.856 0 42.856-42.594M154.341 62.34q0 17.406-8.441 27.22-8.44 9.749-23.293 9.749-9.356 0-16.488-4.515T95.192 81.839 91.398 62.34q0-17.404 8.44-27.088 8.44-9.75 23.162-9.75 14.656 0 22.966 9.88 8.375 9.816 8.375 26.958m-56.139 0q0 14.658 6.412 22.901 6.478 8.18 18.255 8.179 11.778 0 18.19-8.179 6.477-8.244 6.477-22.9 0-14.722-6.543-22.835-6.477-8.113-18.255-8.113-11.776 0-18.189 8.113-6.347 8.048-6.347 22.835M192.813 93.55q6.151 0 10.731-1.046v5.234q-4.711 1.57-10.861 1.57-9.422 0-13.937-5.038-4.449-5.037-4.449-15.833V32.504h-10.534V28.71l10.534-2.944 3.271-16.096h3.337v17.208h20.872v5.627h-20.872V77.52q0 8.18 2.879 12.105t9.029 3.926M263.02 79.483q0 9.553-7.263 14.722-7.263 5.103-20.611 5.104-14.263 0-22.638-4.384v-7.001q10.73 5.365 22.638 5.365 10.535 0 15.965-3.468 5.496-3.533 5.496-9.356 0-5.365-4.383-9.03-4.319-3.663-14.264-7.197-10.666-3.86-14.983-6.608-4.318-2.814-6.543-6.281-2.16-3.534-2.16-8.572 0-7.981 6.674-12.628 6.74-4.645 18.779-4.645 11.515 0 21.853 4.318l-2.421 5.889q-10.469-4.318-19.432-4.318-8.703 0-13.806 2.879t-5.104 7.982q0 5.562 3.926 8.898 3.992 3.337 15.507 7.46 9.618 3.467 14.002 6.28 4.383 2.749 6.543 6.282 2.225 3.532 2.225 8.31"/><circle cx="293.5" cy="86.5" r="12.5" fill="#c6a76a"/><circle cx="375.5" cy="86.5" r="12.5" fill="#a7a4a3"/><circle cx="334.5" cy="86.5" r="12.5" fill="#c5a668"/><circle cx="416.5" cy="86.5" r="12.5" fill="#bbbbbe"/></svg>